<svg width="572" height="787" viewBox="0 0 572 787" fill="none" xmlns="http://www.w3.org/2000/svg">
<g opacity="0.5">
<g opacity="0.5">
<path opacity="0.3" d="M98 576C98 570.477 93.5228 566 88 566C82.4772 566 78 570.477 78 576C78 581.523 82.4772 586 88 586C93.5228 586 98 581.523 98 576ZM80.7217 576C80.7217 571.98 83.9803 568.722 88 568.722C92.0197 568.722 95.2783 571.98 95.2783 576C95.2783 580.02 92.0197 583.278 88 583.278C83.9803 583.278 80.7217 580.02 80.7217 576Z" fill="url(#paint0_linear_35_1895)"/>
<path opacity="0.3" d="M127 416.5C127 405.73 118.27 397 107.5 397C96.7304 397 88 405.73 88 416.5C88 427.27 96.7304 436 107.5 436C118.27 436 127 427.27 127 416.5ZM90.9558 416.5C90.9558 407.363 98.3629 399.956 107.5 399.956C116.637 399.956 124.044 407.363 124.044 416.5C124.044 425.637 116.637 433.044 107.5 433.044C98.3629 433.044 90.9558 425.637 90.9558 416.5Z" fill="url(#paint1_linear_35_1895)"/>
<path opacity="0.3" d="M165 550L217.5 505.5L265 550L224 498.5L265 450L217.5 492.5L165 450L211.5 498.5L165 550Z" fill="url(#paint2_linear_35_1895)"/>
<path opacity="0.3" d="M-11 536L26.8 503.96L61 536L31.48 498.92L61 464L26.8 494.6L-11 464L22.48 498.92L-11 536Z" fill="url(#paint3_linear_35_1895)"/>
</g>
<g opacity="0.5">
<path opacity="0.3" d="M405 373C405 367.477 400.523 363 395 363C389.477 363 385 367.477 385 373C385 378.523 389.477 383 395 383C400.523 383 405 378.523 405 373ZM387.722 373C387.722 368.98 390.98 365.722 395 365.722C399.02 365.722 402.278 368.98 402.278 373C402.278 377.02 399.02 380.278 395 380.278C390.98 380.278 387.722 377.02 387.722 373Z" fill="url(#paint4_linear_35_1895)"/>
<path opacity="0.3" d="M434 213.5C434 202.73 425.27 194 414.5 194C403.73 194 395 202.73 395 213.5C395 224.27 403.73 233 414.5 233C425.27 233 434 224.27 434 213.5ZM397.956 213.5C397.956 204.363 405.363 196.956 414.5 196.956C423.637 196.956 431.044 204.363 431.044 213.5C431.044 222.637 423.637 230.044 414.5 230.044C405.363 230.044 397.956 222.637 397.956 213.5Z" fill="url(#paint5_linear_35_1895)"/>
<path opacity="0.3" d="M472 347L524.5 302.5L572 347L531 295.5L572 247L524.5 289.5L472 247L518.5 295.5L472 347Z" fill="url(#paint6_linear_35_1895)"/>
<path opacity="0.3" d="M262 402L281.425 385.535L299 402L283.83 382.945L299 365L281.425 380.725L262 365L279.205 382.945L262 402Z" fill="url(#paint7_linear_35_1895)"/>
<path opacity="0.3" d="M296 333L333.8 300.96L368 333L338.48 295.92L368 261L333.8 291.6L296 261L329.48 295.92L296 333Z" fill="url(#paint8_linear_35_1895)"/>
</g>
<path opacity="0.3" d="M141 126C141 120.477 136.523 116 131 116C125.477 116 121 120.477 121 126C121 131.523 125.477 136 131 136C136.523 136 141 131.523 141 126ZM123.722 126C123.722 121.98 126.98 118.722 131 118.722C135.02 118.722 138.278 121.98 138.278 126C138.278 130.02 135.02 133.278 131 133.278C126.98 133.278 123.722 130.02 123.722 126Z" fill="url(#paint9_linear_35_1895)"/>
<path opacity="0.3" d="M208 100L260.5 55.5L308 100L267 48.5L308 0L260.5 42.5L208 0L254.5 48.5L208 100Z" fill="url(#paint10_linear_35_1895)"/>
<path opacity="0.3" d="M-2 155L17.425 138.535L35 155L19.83 135.945L35 118L17.425 133.725L-2 118L15.205 135.945L-2 155Z" fill="url(#paint11_linear_35_1895)"/>
<path opacity="0.3" d="M32 86L69.8 53.96L104 86L74.48 48.92L104 14L69.8 44.6L32 14L65.48 48.92L32 86Z" fill="url(#paint12_linear_35_1895)"/>
<path opacity="0.3" d="M175 758C175 752.477 170.523 748 165 748C159.477 748 155 752.477 155 758C155 763.523 159.477 768 165 768C170.523 768 175 763.523 175 758ZM157.722 758C157.722 753.98 160.98 750.722 165 750.722C169.02 750.722 172.278 753.98 172.278 758C172.278 762.02 169.02 765.278 165 765.278C160.98 765.278 157.722 762.02 157.722 758Z" fill="url(#paint13_linear_35_1895)"/>
<path opacity="0.3" d="M204 598.5C204 587.73 195.27 579 184.5 579C173.73 579 165 587.73 165 598.5C165 609.27 173.73 618 184.5 618C195.27 618 204 609.27 204 598.5ZM167.956 598.5C167.956 589.363 175.363 581.956 184.5 581.956C193.637 581.956 201.044 589.363 201.044 598.5C201.044 607.637 193.637 615.044 184.5 615.044C175.363 615.044 167.956 607.637 167.956 598.5Z" fill="url(#paint14_linear_35_1895)"/>
<path opacity="0.3" d="M242 732L294.5 687.5L342 732L301 680.5L342 632L294.5 674.5L242 632L288.5 680.5L242 732Z" fill="url(#paint15_linear_35_1895)"/>
<path opacity="0.3" d="M32 787L51.425 770.535L69 787L53.83 767.945L69 750L51.425 765.725L32 750L49.205 767.945L32 787Z" fill="url(#paint16_linear_35_1895)"/>
<path opacity="0.3" d="M66 718L103.8 685.96L138 718L108.48 680.92L138 646L103.8 676.6L66 646L99.48 680.92L66 718Z" fill="url(#paint17_linear_35_1895)"/>
</g>
<defs>
<linearGradient id="paint0_linear_35_1895" x1="79.9133" y1="582.097" x2="98.1838" y2="570.866" gradientUnits="userSpaceOnUse">
<stop stop-color="#D11775"/>
<stop offset="0.541667" stop-color="#806FBA"/>
<stop offset="1" stop-color="#5073CD"/>
</linearGradient>
<linearGradient id="paint1_linear_35_1895" x1="91.731" y1="428.39" x2="127.358" y2="406.489" gradientUnits="userSpaceOnUse">
<stop stop-color="#D11775"/>
<stop offset="0.541667" stop-color="#806FBA"/>
<stop offset="1" stop-color="#5073CD"/>
</linearGradient>
<linearGradient id="paint2_linear_35_1895" x1="174.567" y1="530.487" x2="265.919" y2="474.33" gradientUnits="userSpaceOnUse">
<stop stop-color="#D11775"/>
<stop offset="0.541667" stop-color="#806FBA"/>
<stop offset="1" stop-color="#5073CD"/>
</linearGradient>
<linearGradient id="paint3_linear_35_1895" x1="-4.112" y1="521.951" x2="61.6617" y2="481.517" gradientUnits="userSpaceOnUse">
<stop stop-color="#D11775"/>
<stop offset="0.541667" stop-color="#806FBA"/>
<stop offset="1" stop-color="#5073CD"/>
</linearGradient>
<linearGradient id="paint4_linear_35_1895" x1="386.913" y1="379.097" x2="405.184" y2="367.866" gradientUnits="userSpaceOnUse">
<stop stop-color="#D11775"/>
<stop offset="0.541667" stop-color="#806FBA"/>
<stop offset="1" stop-color="#5073CD"/>
</linearGradient>
<linearGradient id="paint5_linear_35_1895" x1="398.731" y1="225.39" x2="434.358" y2="203.489" gradientUnits="userSpaceOnUse">
<stop stop-color="#D11775"/>
<stop offset="0.541667" stop-color="#806FBA"/>
<stop offset="1" stop-color="#5073CD"/>
</linearGradient>
<linearGradient id="paint6_linear_35_1895" x1="481.567" y1="327.487" x2="572.919" y2="271.33" gradientUnits="userSpaceOnUse">
<stop stop-color="#D11775"/>
<stop offset="0.541667" stop-color="#806FBA"/>
<stop offset="1" stop-color="#5073CD"/>
</linearGradient>
<linearGradient id="paint7_linear_35_1895" x1="265.54" y1="394.78" x2="299.34" y2="374.002" gradientUnits="userSpaceOnUse">
<stop stop-color="#D11775"/>
<stop offset="0.541667" stop-color="#806FBA"/>
<stop offset="1" stop-color="#5073CD"/>
</linearGradient>
<linearGradient id="paint8_linear_35_1895" x1="302.888" y1="318.951" x2="368.662" y2="278.517" gradientUnits="userSpaceOnUse">
<stop stop-color="#D11775"/>
<stop offset="0.541667" stop-color="#806FBA"/>
<stop offset="1" stop-color="#5073CD"/>
</linearGradient>
<linearGradient id="paint9_linear_35_1895" x1="122.913" y1="132.097" x2="141.184" y2="120.866" gradientUnits="userSpaceOnUse">
<stop stop-color="#D11775"/>
<stop offset="0.541667" stop-color="#806FBA"/>
<stop offset="1" stop-color="#5073CD"/>
</linearGradient>
<linearGradient id="paint10_linear_35_1895" x1="217.567" y1="80.4873" x2="308.919" y2="24.3297" gradientUnits="userSpaceOnUse">
<stop stop-color="#D11775"/>
<stop offset="0.541667" stop-color="#806FBA"/>
<stop offset="1" stop-color="#5073CD"/>
</linearGradient>
<linearGradient id="paint11_linear_35_1895" x1="1.53967" y1="147.78" x2="35.34" y2="127.002" gradientUnits="userSpaceOnUse">
<stop stop-color="#D11775"/>
<stop offset="0.541667" stop-color="#806FBA"/>
<stop offset="1" stop-color="#5073CD"/>
</linearGradient>
<linearGradient id="paint12_linear_35_1895" x1="38.888" y1="71.9509" x2="104.662" y2="31.5174" gradientUnits="userSpaceOnUse">
<stop stop-color="#D11775"/>
<stop offset="0.541667" stop-color="#806FBA"/>
<stop offset="1" stop-color="#5073CD"/>
</linearGradient>
<linearGradient id="paint13_linear_35_1895" x1="156.913" y1="764.097" x2="175.184" y2="752.866" gradientUnits="userSpaceOnUse">
<stop stop-color="#D11775"/>
<stop offset="0.541667" stop-color="#806FBA"/>
<stop offset="1" stop-color="#5073CD"/>
</linearGradient>
<linearGradient id="paint14_linear_35_1895" x1="168.731" y1="610.39" x2="204.358" y2="588.489" gradientUnits="userSpaceOnUse">
<stop stop-color="#D11775"/>
<stop offset="0.541667" stop-color="#806FBA"/>
<stop offset="1" stop-color="#5073CD"/>
</linearGradient>
<linearGradient id="paint15_linear_35_1895" x1="251.567" y1="712.487" x2="342.919" y2="656.33" gradientUnits="userSpaceOnUse">
<stop stop-color="#D11775"/>
<stop offset="0.541667" stop-color="#806FBA"/>
<stop offset="1" stop-color="#5073CD"/>
</linearGradient>
<linearGradient id="paint16_linear_35_1895" x1="35.5397" y1="779.78" x2="69.34" y2="759.002" gradientUnits="userSpaceOnUse">
<stop stop-color="#D11775"/>
<stop offset="0.541667" stop-color="#806FBA"/>
<stop offset="1" stop-color="#5073CD"/>
</linearGradient>
<linearGradient id="paint17_linear_35_1895" x1="72.888" y1="703.951" x2="138.662" y2="663.517" gradientUnits="userSpaceOnUse">
<stop stop-color="#D11775"/>
<stop offset="0.541667" stop-color="#806FBA"/>
<stop offset="1" stop-color="#5073CD"/>
</linearGradient>
</defs>
</svg>
